<svg width="289" height="289" viewBox="0 0 289 289" fill="none" xmlns="http://www.w3.org/2000/svg">
<circle cx="144.5" cy="144.5" r="144.5" fill="url(#paint0_linear_246_2772)"/>
<path d="M145.148 236.352C130.659 236.352 117.851 234.364 106.724 230.386C95.5975 226.456 86.2462 220.656 78.6705 212.986C71.0947 205.315 65.3655 195.917 61.483 184.79C57.6004 173.663 55.6591 160.926 55.6591 146.58C55.6591 132.706 57.6241 120.301 61.554 109.364C65.5313 98.4261 71.2841 89.1458 78.8125 81.5227C86.3883 73.8523 95.5739 68.0047 106.369 63.9801C117.212 59.9555 129.475 57.9432 143.159 57.9432C156.464 57.9432 168.112 60.1212 178.102 64.4773C188.14 68.786 196.521 74.6335 203.244 82.0199C210.015 89.3589 215.081 97.6212 218.443 106.807C221.852 115.992 223.557 125.462 223.557 135.216C223.557 142.081 223.225 149.042 222.562 156.097C221.9 163.152 220.503 169.638 218.372 175.557C216.241 181.428 212.951 186.163 208.5 189.761C204.097 193.36 198.131 195.159 190.602 195.159C187.288 195.159 183.642 194.638 179.665 193.597C175.688 192.555 172.16 190.827 169.082 188.412C166.005 185.997 164.182 182.754 163.614 178.682H162.761C161.625 181.428 159.873 184.032 157.506 186.494C155.186 188.956 152.132 190.921 148.344 192.389C144.603 193.857 140.034 194.496 134.636 194.307C128.481 194.07 123.06 192.697 118.372 190.188C113.685 187.631 109.755 184.174 106.582 179.818C103.457 175.415 101.09 170.325 99.4801 164.548C97.9176 158.724 97.1364 152.451 97.1364 145.727C97.1364 139.335 98.0833 133.488 99.9773 128.185C101.871 122.882 104.499 118.241 107.861 114.264C111.27 110.287 115.247 107.115 119.793 104.747C124.385 102.332 129.333 100.841 134.636 100.273C139.371 99.7992 143.68 100.012 147.562 100.912C151.445 101.764 154.641 103.066 157.151 104.818C159.66 106.523 161.246 108.417 161.909 110.5H162.761V102.545H177.818V166.75C177.818 170.727 178.931 174.231 181.156 177.261C183.382 180.292 186.625 181.807 190.886 181.807C195.716 181.807 199.409 180.15 201.966 176.835C204.57 173.521 206.346 168.407 207.293 161.494C208.287 154.581 208.784 145.727 208.784 134.932C208.784 128.587 207.908 122.337 206.156 116.182C204.452 109.979 201.848 104.179 198.344 98.7812C194.887 93.3835 190.508 88.625 185.205 84.5057C179.902 80.3864 173.675 77.1667 166.526 74.8466C159.423 72.4792 151.35 71.2955 142.307 71.2955C131.18 71.2955 121.213 73.0237 112.406 76.4801C103.647 79.8892 96.1894 84.8845 90.0341 91.4659C83.9261 98 79.2623 105.955 76.0426 115.33C72.8703 124.657 71.2841 135.263 71.2841 147.148C71.2841 159.222 72.8703 169.946 76.0426 179.321C79.2623 188.696 83.9972 196.603 90.2472 203.043C96.5445 209.482 104.333 214.359 113.614 217.673C122.894 221.035 133.595 222.716 145.716 222.716C150.924 222.716 156.062 222.219 161.128 221.224C166.194 220.23 170.669 219.141 174.551 217.957C178.434 216.774 181.227 215.898 182.932 215.33L186.909 228.398C183.973 229.629 180.138 230.86 175.403 232.091C170.716 233.322 165.697 234.34 160.347 235.145C155.044 235.95 149.977 236.352 145.148 236.352ZM136.909 179.818C143.254 179.818 148.391 178.54 152.321 175.983C156.251 173.426 159.116 169.567 160.915 164.406C162.714 159.245 163.614 152.735 163.614 144.875C163.614 136.92 162.619 130.718 160.631 126.267C158.642 121.816 155.706 118.691 151.824 116.892C147.941 115.093 143.159 114.193 137.477 114.193C132.08 114.193 127.463 115.614 123.628 118.455C119.84 121.248 116.928 124.989 114.892 129.676C112.903 134.316 111.909 139.383 111.909 144.875C111.909 150.936 112.714 156.641 114.324 161.991C115.934 167.295 118.562 171.603 122.207 174.918C125.853 178.185 130.754 179.818 136.909 179.818Z" fill="white"/>
<defs>
<linearGradient id="paint0_linear_246_2772" x1="47.7706" y1="237.664" x2="263.332" y2="76.7656" gradientUnits="userSpaceOnUse">
<stop stop-color="#01183D"/>
<stop offset="1" stop-color="#1E1E1E"/>
</linearGradient>
</defs>
</svg>
